<?xml version="1.0" standalone="no"?><!DOCTYPE svg PUBLIC "-//W3C//DTD SVG 1.1//EN" "http://www.w3.org/Graphics/SVG/1.1/DTD/svg11.dtd"><svg t="1743335819192" class="icon" viewBox="0 0 1024 1024" version="1.1" xmlns="http://www.w3.org/2000/svg" p-id="4548" xmlns:xlink="http://www.w3.org/1999/xlink" width="32" height="32"><path d="M512 0m73.142857 0l365.714286 0q73.142857 0 73.142857 73.142857l0 146.285714q0 73.142857-73.142857 73.142858l-365.714286 0q-73.142857 0-73.142857-73.142858l0-146.285714q0-73.142857 73.142857-73.142857Z" fill="#42b883" p-id="4549"></path><path d="M0 365.714286m73.142857 0l585.142857 0q73.142857 0 73.142857 73.142857l0 146.285714q0 73.142857-73.142857 73.142857l-585.142857 0q-73.142857 0-73.142857-73.142857l0-146.285714q0-73.142857 73.142857-73.142857Z" fill="#42b883" p-id="4550"></path><path d="M219.428571 731.428571m73.142858 0l585.142857 0q73.142857 0 73.142857 73.142858l0 146.285714q0 73.142857-73.142857 73.142857l-585.142857 0q-73.142857 0-73.142858-73.142857l0-146.285714q0-73.142857 73.142858-73.142858Z" fill="#42b883" p-id="4551"></path></svg>